<svg width="88" height="25" viewBox="0 0 88 25" fill="none" xmlns="http://www.w3.org/2000/svg">
<g filter="url(#filter0_d_3710_442)">
<path d="M9.054 16.171C7.96467 16.171 7.116 15.943 6.508 15.487C5.91267 15.031 5.49467 14.4167 5.254 13.644C5.026 12.8713 4.912 12.01 4.912 11.06V5.626C4.912 4.58733 5.026 3.68167 5.254 2.909C5.49467 2.13633 5.91267 1.541 6.508 1.123C7.116 0.692333 7.96467 0.476999 9.054 0.476999C10.0167 0.476999 10.7767 0.654333 11.334 1.009C11.904 1.36367 12.3093 1.87033 12.55 2.529C12.8033 3.18767 12.93 3.97933 12.93 4.904V6.12H10.897V5.037C10.897 4.467 10.8653 3.96667 10.802 3.536C10.7513 3.09267 10.5993 2.75067 10.346 2.51C10.0927 2.26933 9.66833 2.149 9.073 2.149C8.465 2.149 8.02167 2.282 7.743 2.548C7.46433 2.80133 7.28067 3.16867 7.192 3.65C7.116 4.11867 7.078 4.66967 7.078 5.303V11.402C7.078 12.1747 7.14133 12.789 7.268 13.245C7.39467 13.6883 7.60367 14.005 7.895 14.195C8.18633 14.385 8.579 14.48 9.073 14.48C9.65567 14.48 10.0737 14.3533 10.327 14.1C10.5803 13.834 10.7387 13.473 10.802 13.017C10.8653 12.561 10.897 12.029 10.897 11.421V10.281H12.93V11.421C12.93 12.3583 12.816 13.188 12.588 13.91C12.36 14.6193 11.9673 15.1767 11.41 15.582C10.8527 15.9747 10.0673 16.171 9.054 16.171ZM17.7303 16.152C17.2997 16.152 16.9197 16.0317 16.5903 15.791C16.261 15.5377 16.0013 15.221 15.8113 14.841C15.6213 14.4483 15.5263 14.0367 15.5263 13.606C15.5263 12.922 15.6403 12.3457 15.8683 11.877C16.0963 11.4083 16.4067 11.0157 16.7993 10.699C17.2047 10.3697 17.667 10.0847 18.1863 9.844C18.7183 9.60333 19.2757 9.369 19.8583 9.141V8.362C19.8583 7.91867 19.833 7.55133 19.7823 7.26C19.7317 6.96867 19.624 6.75333 19.4593 6.614C19.3073 6.462 19.073 6.386 18.7563 6.386C18.4777 6.386 18.2497 6.44933 18.0723 6.576C17.9077 6.70267 17.7873 6.88633 17.7113 7.127C17.6353 7.355 17.5973 7.62733 17.5973 7.944V8.495L15.5833 8.419C15.6087 7.203 15.8873 6.31 16.4193 5.74C16.9513 5.15733 17.7747 4.866 18.8893 4.866C19.9787 4.866 20.7513 5.16367 21.2073 5.759C21.6633 6.35433 21.8913 7.21567 21.8913 8.343V13.359C21.8913 13.701 21.8977 14.0303 21.9103 14.347C21.9357 14.6637 21.961 14.9613 21.9863 15.24C22.0243 15.506 22.056 15.7593 22.0813 16H20.2193C20.1813 15.7973 20.1307 15.544 20.0673 15.24C20.0167 14.9233 19.9787 14.6383 19.9533 14.385C19.8267 14.8157 19.5797 15.221 19.2123 15.601C18.8577 15.9683 18.3637 16.152 17.7303 16.152ZM18.5283 14.404C18.731 14.404 18.921 14.347 19.0983 14.233C19.2757 14.119 19.434 13.9923 19.5733 13.853C19.7127 13.701 19.8077 13.5807 19.8583 13.492V10.376C19.5417 10.5533 19.244 10.7307 18.9653 10.908C18.6867 11.0853 18.4397 11.2753 18.2243 11.478C18.0217 11.668 17.857 11.8897 17.7303 12.143C17.6163 12.3837 17.5593 12.6623 17.5593 12.979C17.5593 13.4223 17.6417 13.7707 17.8063 14.024C17.971 14.2773 18.2117 14.404 18.5283 14.404ZM27.3402 16.152C26.4408 16.152 25.7188 15.8733 25.1742 15.316C24.6295 14.746 24.3192 13.9987 24.2432 13.074L25.9342 12.561C26.0355 13.2577 26.2065 13.7833 26.4472 14.138C26.6878 14.48 27.0425 14.651 27.5112 14.651C27.8785 14.651 28.1572 14.5497 28.3472 14.347C28.5372 14.1317 28.6322 13.8467 28.6322 13.492C28.6322 13.1753 28.5625 12.8903 28.4232 12.637C28.2838 12.3837 28.0558 12.124 27.7392 11.858L25.8582 10.243C25.4782 9.91367 25.1552 9.54633 24.8892 9.141C24.6358 8.73567 24.5092 8.21 24.5092 7.564C24.5092 6.98133 24.6232 6.49367 24.8512 6.101C25.0918 5.69567 25.4212 5.39167 25.8392 5.189C26.2698 4.97367 26.7702 4.866 27.3402 4.866C28.2142 4.866 28.8792 5.151 29.3352 5.721C29.8038 6.27833 30.0698 6.956 30.1332 7.754L28.7652 8.267C28.7145 7.887 28.6385 7.55767 28.5372 7.279C28.4358 6.98767 28.2965 6.766 28.1192 6.614C27.9418 6.44933 27.7075 6.367 27.4162 6.367C27.0868 6.367 26.8208 6.481 26.6182 6.709C26.4282 6.92433 26.3332 7.184 26.3332 7.488C26.3332 7.678 26.3712 7.868 26.4472 8.058C26.5358 8.23533 26.6815 8.41267 26.8842 8.59L28.8222 10.376C29.0882 10.6167 29.3352 10.8763 29.5632 11.155C29.8038 11.4337 30.0002 11.7503 30.1522 12.105C30.3042 12.4597 30.3802 12.8713 30.3802 13.34C30.3802 13.9607 30.2535 14.48 30.0002 14.898C29.7468 15.316 29.3922 15.6327 28.9362 15.848C28.4802 16.0507 27.9482 16.152 27.3402 16.152ZM35.7766 16.152C35.2066 16.152 34.7443 16.0443 34.3896 15.829C34.0476 15.6137 33.7943 15.3097 33.6296 14.917C33.4776 14.5243 33.4016 14.062 33.4016 13.53V6.367H32.2426V5.018H33.4016V1.807H35.4346V5.018H37.2016V6.367H35.4346V13.397C35.4346 13.8277 35.5043 14.138 35.6436 14.328C35.7829 14.5053 36.0489 14.594 36.4416 14.594C36.5429 14.594 36.6569 14.5877 36.7836 14.575C36.9229 14.5623 37.0559 14.5497 37.1826 14.537V16.038C36.9293 16.076 36.6949 16.1013 36.4796 16.114C36.2643 16.1393 36.0299 16.152 35.7766 16.152ZM39.8163 16V0.609999H43.6353C44.56 0.609999 45.2947 0.780999 45.8393 1.123C46.3967 1.45233 46.802 1.93367 47.0553 2.567C47.3087 3.20033 47.4353 3.96667 47.4353 4.866C47.4353 5.67667 47.2897 6.37967 46.9983 6.975C46.7197 7.57033 46.3017 8.03267 45.7443 8.362C45.187 8.67867 44.4903 8.837 43.6543 8.837H41.9633V16H39.8163ZM41.9633 7.298H42.9513C43.572 7.298 44.0597 7.22833 44.4143 7.089C44.769 6.94967 45.0223 6.709 45.1743 6.367C45.3263 6.01233 45.4023 5.51833 45.4023 4.885C45.4023 4.15033 45.3453 3.58667 45.2313 3.194C45.13 2.80133 44.9083 2.529 44.5663 2.377C44.2243 2.225 43.6923 2.149 42.9703 2.149H41.9633V7.298ZM49.7812 16V5.018H51.8142V6.576C52.2196 5.90467 52.6249 5.455 53.0302 5.227C53.4356 4.999 53.8409 4.885 54.2462 4.885C54.2969 4.885 54.3412 4.885 54.3792 4.885C54.4299 4.885 54.4932 4.89133 54.5692 4.904V7.146C54.4172 7.08267 54.2399 7.032 54.0372 6.994C53.8472 6.94333 53.6509 6.918 53.4482 6.918C53.1316 6.918 52.8402 6.994 52.5742 7.146C52.3209 7.28533 52.0676 7.564 51.8142 7.982V16H49.7812ZM59.8187 16.152C58.9574 16.152 58.2924 15.9873 57.8237 15.658C57.3551 15.316 57.0257 14.822 56.8357 14.176C56.6584 13.5173 56.5697 12.713 56.5697 11.763V9.255C56.5697 8.27967 56.6647 7.469 56.8547 6.823C57.0447 6.177 57.3741 5.68933 57.8427 5.36C58.3241 5.03067 58.9827 4.866 59.8187 4.866C60.7434 4.866 61.4211 5.056 61.8517 5.436C62.2951 5.816 62.5864 6.367 62.7257 7.089C62.8651 7.79833 62.9347 8.65333 62.9347 9.654V10.547H58.6027V12.751C58.6027 13.1943 58.6407 13.5553 58.7167 13.834C58.8054 14.1127 58.9384 14.3217 59.1157 14.461C59.3057 14.5877 59.5464 14.651 59.8377 14.651C60.1417 14.651 60.3697 14.5813 60.5217 14.442C60.6864 14.29 60.7941 14.081 60.8447 13.815C60.9081 13.5363 60.9397 13.2133 60.9397 12.846V12.181H62.9157V12.599C62.9157 13.701 62.6814 14.5687 62.2127 15.202C61.7441 15.8353 60.9461 16.152 59.8187 16.152ZM58.6027 9.445H60.9397V8.457C60.9397 8.001 60.9144 7.621 60.8637 7.317C60.8131 7.00033 60.7054 6.766 60.5407 6.614C60.3887 6.44933 60.1417 6.367 59.7997 6.367C59.4704 6.367 59.2171 6.443 59.0397 6.595C58.8751 6.747 58.7611 7.00667 58.6977 7.374C58.6344 7.72867 58.6027 8.22267 58.6027 8.856V9.445ZM68.2718 16.152C67.3725 16.152 66.6505 15.8733 66.1058 15.316C65.5611 14.746 65.2508 13.9987 65.1748 13.074L66.8658 12.561C66.9671 13.2577 67.1381 13.7833 67.3788 14.138C67.6195 14.48 67.9741 14.651 68.4428 14.651C68.8101 14.651 69.0888 14.5497 69.2788 14.347C69.4688 14.1317 69.5638 13.8467 69.5638 13.492C69.5638 13.1753 69.4941 12.8903 69.3548 12.637C69.2155 12.3837 68.9875 12.124 68.6708 11.858L66.7898 10.243C66.4098 9.91367 66.0868 9.54633 65.8208 9.141C65.5675 8.73567 65.4408 8.21 65.4408 7.564C65.4408 6.98133 65.5548 6.49367 65.7828 6.101C66.0235 5.69567 66.3528 5.39167 66.7708 5.189C67.2015 4.97367 67.7018 4.866 68.2718 4.866C69.1458 4.866 69.8108 5.151 70.2668 5.721C70.7355 6.27833 71.0015 6.956 71.0648 7.754L69.6968 8.267C69.6461 7.887 69.5701 7.55767 69.4688 7.279C69.3675 6.98767 69.2281 6.766 69.0508 6.614C68.8735 6.44933 68.6391 6.367 68.3478 6.367C68.0185 6.367 67.7525 6.481 67.5498 6.709C67.3598 6.92433 67.2648 7.184 67.2648 7.488C67.2648 7.678 67.3028 7.868 67.3788 8.058C67.4675 8.23533 67.6131 8.41267 67.8158 8.59L69.7538 10.376C70.0198 10.6167 70.2668 10.8763 70.4948 11.155C70.7355 11.4337 70.9318 11.7503 71.0838 12.105C71.2358 12.4597 71.3118 12.8713 71.3118 13.34C71.3118 13.9607 71.1851 14.48 70.9318 14.898C70.6785 15.316 70.3238 15.6327 69.8678 15.848C69.4118 16.0507 68.8798 16.152 68.2718 16.152ZM76.3282 16.152C75.4289 16.152 74.7069 15.8733 74.1622 15.316C73.6176 14.746 73.3072 13.9987 73.2312 13.074L74.9222 12.561C75.0236 13.2577 75.1946 13.7833 75.4352 14.138C75.6759 14.48 76.0306 14.651 76.4992 14.651C76.8666 14.651 77.1452 14.5497 77.3352 14.347C77.5252 14.1317 77.6202 13.8467 77.6202 13.492C77.6202 13.1753 77.5506 12.8903 77.4112 12.637C77.2719 12.3837 77.0439 12.124 76.7272 11.858L74.8462 10.243C74.4662 9.91367 74.1432 9.54633 73.8772 9.141C73.6239 8.73567 73.4972 8.21 73.4972 7.564C73.4972 6.98133 73.6112 6.49367 73.8392 6.101C74.0799 5.69567 74.4092 5.39167 74.8272 5.189C75.2579 4.97367 75.7582 4.866 76.3282 4.866C77.2022 4.866 77.8672 5.151 78.3232 5.721C78.7919 6.27833 79.0579 6.956 79.1212 7.754L77.7532 8.267C77.7026 7.887 77.6266 7.55767 77.5252 7.279C77.4239 6.98767 77.2846 6.766 77.1072 6.614C76.9299 6.44933 76.6956 6.367 76.4042 6.367C76.0749 6.367 75.8089 6.481 75.6062 6.709C75.4162 6.92433 75.3212 7.184 75.3212 7.488C75.3212 7.678 75.3592 7.868 75.4352 8.058C75.5239 8.23533 75.6696 8.41267 75.8722 8.59L77.8102 10.376C78.0762 10.6167 78.3232 10.8763 78.5512 11.155C78.7919 11.4337 78.9882 11.7503 79.1402 12.105C79.2922 12.4597 79.3682 12.8713 79.3682 13.34C79.3682 13.9607 79.2416 14.48 78.9882 14.898C78.7349 15.316 78.3802 15.6327 77.9242 15.848C77.4682 16.0507 76.9362 16.152 76.3282 16.152ZM81.7437 16V13.739H83.7767V16H81.7437Z" fill="#222222"/>
</g>
<defs>
<filter id="filter0_d_3710_442" x="0.912109" y="0.477051" width="86.8652" height="23.6938" filterUnits="userSpaceOnUse" color-interpolation-filters="sRGB">
<feFlood flood-opacity="0" result="BackgroundImageFix"/>
<feColorMatrix in="SourceAlpha" type="matrix" values="0 0 0 0 0 0 0 0 0 0 0 0 0 0 0 0 0 0 127 0" result="hardAlpha"/>
<feOffset dy="4"/>
<feGaussianBlur stdDeviation="2"/>
<feComposite in2="hardAlpha" operator="out"/>
<feColorMatrix type="matrix" values="0 0 0 0 0 0 0 0 0 0 0 0 0 0 0 0 0 0 0.25 0"/>
<feBlend mode="normal" in2="BackgroundImageFix" result="effect1_dropShadow_3710_442"/>
<feBlend mode="normal" in="SourceGraphic" in2="effect1_dropShadow_3710_442" result="shape"/>
</filter>
</defs>
</svg>
