<svg width="0" height="0" class="hidden">
  <symbol xmlns="http://www.w3.org/2000/svg" viewBox="0 0 8 5" id="icon_arrow_down">
    <path d="M7.23151 0.0557556C7.26906 0.0200717 7.32017 -2.97164e-08 7.37349 -2.73857e-08C7.42681 -2.50551e-08 7.47792 0.0200717 7.51547 0.0557556L7.9394 0.455359C7.97807 0.489564 8 0.53732 8 0.587303C8 0.637286 7.97807 0.685042 7.9394 0.719247L4.26396 4.18373C4.20776 4.23677 4.13152 4.2666 4.05199 4.26667L3.94801 4.26667C3.86848 4.2666 3.79224 4.23677 3.73604 4.18373L0.0605983 0.719247C0.0219335 0.685042 -2.78566e-08 0.637285 -2.56718e-08 0.587303C-2.3487e-08 0.53732 0.0219335 0.489563 0.0605984 0.455358L0.484534 0.0557553C0.522081 0.0200714 0.573193 -3.24636e-07 0.626513 -3.22305e-07C0.679832 -3.19975e-07 0.730943 0.0200714 0.768491 0.0557553L4 3.10179L7.23151 0.0557556Z" fill="#222222"></path>
  </symbol>
  <symbol xmlns="http://www.w3.org/2000/svg" viewBox="0 0 13 12" id="icon_heart">
    <path fill-rule="evenodd" clip-rule="evenodd" d="M6.48649 1.3427C7.23803 0.519074 8.29096 0.0347259 9.40541 0C11.3757 0 12.973 1.59725 12.973 3.56757C12.973 5.90026 10.3798 8.45677 8.8246 9.99004C8.68458 10.1281 8.55298 10.2578 8.43243 10.3784L6.95351 11.8573C6.86237 11.9486 6.73871 11.9999 6.60973 12H6.36324C6.23426 11.9999 6.11061 11.9486 6.01946 11.8573L4.54054 10.3784C4.42 10.2578 4.28839 10.1281 4.14837 9.99004C2.59314 8.45677 0 5.90026 0 3.56757C0 1.59725 1.59725 0 3.56757 0C4.68201 0.0347259 5.73494 0.519074 6.48649 1.3427ZM6.48655 10.4886L7.91358 9.08099C9.23034 7.78369 11.6757 5.35774 11.6757 3.56747C11.6758 2.96197 11.4339 2.38155 11.0039 1.95523C10.574 1.52891 9.99149 1.29201 9.38601 1.2972C8.37756 1.39082 7.46726 1.94035 6.91466 2.78909C6.85276 2.86997 6.75705 2.91783 6.6552 2.91882H6.36331C6.21176 2.91841 6.06859 2.84922 5.97412 2.73072C5.43029 1.91325 4.54543 1.38615 3.56763 1.2972C2.3138 1.2972 1.29736 2.31364 1.29736 3.56747C1.29736 5.35774 3.74277 7.78369 5.05953 9.08099L6.48655 10.4886Z"></path>
  </symbol>
  <symbol xmlns="http://www.w3.org/2000/svg" viewBox="0 0 16 16" id="icon_search">
    <path fill-rule="evenodd" clip-rule="evenodd" d="M12.331 11.0715L15.8859 14.6313C16.0447 14.8079 16.0368 15.0783 15.8681 15.2454L15.246 15.8684C15.1626 15.9526 15.049 16 14.9305 16C14.812 16 14.6985 15.9526 14.615 15.8684L11.0601 12.3085C10.9618 12.21 10.8726 12.1028 10.7935 11.9881L10.127 11.0982C9.02413 11.9801 7.6546 12.4602 6.24327 12.4598C3.33502 12.4699 0.807867 10.461 0.157951 7.62231C-0.491966 4.78365 0.90881 1.87288 3.53098 0.613257C6.15315 -0.646363 9.29689 0.0813446 11.101 2.36555C12.9052 4.64977 12.8882 7.88086 11.0601 10.1459L11.9489 10.76C12.0877 10.849 12.2159 10.9535 12.331 11.0715ZM1.79968 6.23008C1.79968 8.68763 3.78915 10.6799 6.24329 10.6799C7.42181 10.6799 8.55206 10.2111 9.3854 9.37656C10.2187 8.54206 10.6869 7.41024 10.6869 6.23008C10.6869 3.77252 8.69743 1.78027 6.24329 1.78027C3.78915 1.78027 1.79968 3.77252 1.79968 6.23008Z"></path>
  </symbol>
</svg>
