<svg width="0" height="0" class="hidden">
    <!--  Top menu icons-->
    <symbol xmlns="http://www.w3.org/2000/svg" viewBox="0 0 8 5" id="icon_arrow_down">
        <path d="M7.23151 0.0557556C7.26906 0.0200717 7.32017 -2.97164e-08 7.37349 -2.73857e-08C7.42681 -2.50551e-08 7.47792 0.0200717 7.51547 0.0557556L7.9394 0.455359C7.97807 0.489564 8 0.53732 8 0.587303C8 0.637286 7.97807 0.685042 7.9394 0.719247L4.26396 4.18373C4.20776 4.23677 4.13152 4.2666 4.05199 4.26667L3.94801 4.26667C3.86848 4.2666 3.79224 4.23677 3.73604 4.18373L0.0605983 0.719247C0.0219335 0.685042 -2.78566e-08 0.637285 -2.56718e-08 0.587303C-2.3487e-08 0.53732 0.0219335 0.489563 0.0605984 0.455358L0.484534 0.0557553C0.522081 0.0200714 0.573193 -3.24636e-07 0.626513 -3.22305e-07C0.679832 -3.19975e-07 0.730943 0.0200714 0.768491 0.0557553L4 3.10179L7.23151 0.0557556Z"
              fill="#222222"></path>
    </symbol>
    <symbol xmlns="http://www.w3.org/2000/svg" viewBox="0 0 13 12" id="icon_heart">
        <path fill-rule="evenodd" clip-rule="evenodd"
              d="M6.48649 1.3427C7.23803 0.519074 8.29096 0.0347259 9.40541 0C11.3757 0 12.973 1.59725 12.973 3.56757C12.973 5.90026 10.3798 8.45677 8.8246 9.99004C8.68458 10.1281 8.55298 10.2578 8.43243 10.3784L6.95351 11.8573C6.86237 11.9486 6.73871 11.9999 6.60973 12H6.36324C6.23426 11.9999 6.11061 11.9486 6.01946 11.8573L4.54054 10.3784C4.42 10.2578 4.28839 10.1281 4.14837 9.99004C2.59314 8.45677 0 5.90026 0 3.56757C0 1.59725 1.59725 0 3.56757 0C4.68201 0.0347259 5.73494 0.519074 6.48649 1.3427ZM6.48655 10.4886L7.91358 9.08099C9.23034 7.78369 11.6757 5.35774 11.6757 3.56747C11.6758 2.96197 11.4339 2.38155 11.0039 1.95523C10.574 1.52891 9.99149 1.29201 9.38601 1.2972C8.37756 1.39082 7.46726 1.94035 6.91466 2.78909C6.85276 2.86997 6.75705 2.91783 6.6552 2.91882H6.36331C6.21176 2.91841 6.06859 2.84922 5.97412 2.73072C5.43029 1.91325 4.54543 1.38615 3.56763 1.2972C2.3138 1.2972 1.29736 2.31364 1.29736 3.56747C1.29736 5.35774 3.74277 7.78369 5.05953 9.08099L6.48655 10.4886Z"></path>
    </symbol>
    <symbol xmlns="http://www.w3.org/2000/svg" viewBox="0 0 16 16" id="icon_search">
        <path fill-rule="evenodd" clip-rule="evenodd"
              d="M12.331 11.0715L15.8859 14.6313C16.0447 14.8079 16.0368 15.0783 15.8681 15.2454L15.246 15.8684C15.1626 15.9526 15.049 16 14.9305 16C14.812 16 14.6985 15.9526 14.615 15.8684L11.0601 12.3085C10.9618 12.21 10.8726 12.1028 10.7935 11.9881L10.127 11.0982C9.02413 11.9801 7.6546 12.4602 6.24327 12.4598C3.33502 12.4699 0.807867 10.461 0.157951 7.62231C-0.491966 4.78365 0.90881 1.87288 3.53098 0.613257C6.15315 -0.646363 9.29689 0.0813446 11.101 2.36555C12.9052 4.64977 12.8882 7.88086 11.0601 10.1459L11.9489 10.76C12.0877 10.849 12.2159 10.9535 12.331 11.0715ZM1.79968 6.23008C1.79968 8.68763 3.78915 10.6799 6.24329 10.6799C7.42181 10.6799 8.55206 10.2111 9.3854 9.37656C10.2187 8.54206 10.6869 7.41024 10.6869 6.23008C10.6869 3.77252 8.69743 1.78027 6.24329 1.78027C3.78915 1.78027 1.79968 3.77252 1.79968 6.23008Z"></path>
    </symbol>
    <!-- Listen on group icons -->
    <symbol xmlns="http://www.w3.org/2000/svg" viewBox="0 0 24 24" id="icon_spotify">
        <g clip-path="url(#clip0_492_127)">
            <path d="M12 24C18.624 24 24 18.624 24 12C24 5.376 18.624 0 12 0C5.376 0 0 5.376 0 12C0 18.624 5.376 24 12 24ZM16.872 17.656V17.657C16.065 17.657 13.516 14.829 6.352 16.297C6.163 16.346 5.916 16.423 5.776 16.423C4.861 16.423 4.686 15.054 5.67 14.845C9.633 13.97 13.683 14.047 17.137 16.113C17.961 16.639 17.611 17.656 16.872 17.656ZM18.175 14.483C18.062 14.453 18.095 14.552 17.578 14.28C14.553 12.49 10.045 11.768 6.033 12.857C5.801 12.92 5.675 12.983 5.457 12.983C4.386 12.983 4.102 11.372 5.269 11.043C9.985 9.718 15.044 10.491 18.566 12.586C18.958 12.818 19.113 13.119 19.113 13.539C19.108 14.061 18.702 14.483 18.175 14.483ZM4.548 6.998C9.071 5.674 15.916 6.092 20.172 8.576C21.263 9.205 20.834 10.796 19.674 10.796L19.673 10.795C19.421 10.795 19.266 10.732 19.048 10.606C15.605 8.55 9.444 8.057 5.458 9.17C5.283 9.218 5.065 9.295 4.833 9.295C4.194 9.295 3.706 8.796 3.706 8.153C3.706 7.496 4.113 7.124 4.548 6.998Z"
                  />
        </g>
    </symbol>
    <symbol xmlns="http://www.w3.org/2000/svg" viewBox="0 0 30 30" id="icon_soundcloud">
        <g clip-path="url(#clip0_492_130)">
            <path d="M25.3125 13.75C24.9788 13.75 24.6513 13.7862 24.335 13.8525C23.9138 9.59125 20.3075 6.25 15.9375 6.25C15.42 6.25 15 6.67 15 7.1875V22.1875C15 22.705 15.42 23.125 15.9375 23.125H25.3125C27.8988 23.125 30 21.0237 30 18.4375C30 15.8537 27.8988 13.75 25.3125 13.75Z"
                  />
            <path d="M11.25 9.0625V22.1875C11.25 22.705 11.67 23.125 12.1875 23.125C12.705 23.125 13.125 22.705 13.125 22.1875V9.0625C13.125 8.545 12.705 8.125 12.1875 8.125C11.67 8.125 11.25 8.545 11.25 9.0625Z"
                  />
            <path d="M7.5 12.8125V22.1875C7.5 22.705 7.92 23.125 8.4375 23.125C8.955 23.125 9.375 22.705 9.375 22.1875V12.8125C9.375 12.295 8.955 11.875 8.4375 11.875C7.92 11.875 7.5 12.295 7.5 12.8125Z"
                  />
            <path d="M3.75 22.1875C3.75 22.705 4.17 23.125 4.6875 23.125C5.205 23.125 5.625 22.705 5.625 22.1875V12.8125C5.625 12.295 5.205 11.875 4.6875 11.875C4.17 11.875 3.75 12.295 3.75 12.8125V22.1875Z"
                  />
            <path d="M0.9375 23.125C1.455 23.125 1.875 22.705 1.875 22.1875V16.5625C1.875 16.045 1.455 15.625 0.9375 15.625C0.42 15.625 0 16.045 0 16.5625V22.1875C0 22.705 0.42 23.125 0.9375 23.125Z"
                  />
        </g>
    </symbol>
    <symbol xmlns="http://www.w3.org/2000/svg" viewBox="0 0 22 24" id="icon_apple">
        <path d="M7.23364 23.9999C3.27473 23.9794 0 16.6879 0 12.9745C0 6.90873 5.04338 5.58077 6.98706 5.58077C7.863 5.58077 8.79832 5.89112 9.62329 6.16576C10.2002 6.35734 10.7968 6.5551 11.1286 6.5551C11.3273 6.5551 11.7953 6.38687 12.2085 6.23926C13.0898 5.92272 14.1865 5.5293 15.4635 5.5293C15.4658 5.5293 15.4688 5.5293 15.4711 5.5293C16.4246 5.5293 19.3158 5.71811 21.054 8.07328L21.4612 8.62533L20.8752 9.02428C20.0381 9.59418 18.5107 10.6338 18.5107 12.693C18.5107 15.132 20.2405 16.0699 21.0715 16.5211C21.4384 16.7202 21.8181 16.9255 21.8181 17.3746C21.8181 17.6678 19.2245 23.9636 15.4581 23.9636C14.5365 23.9636 13.8851 23.7136 13.3105 23.4932C12.7291 23.27 12.2275 23.0778 11.3987 23.0778C10.9786 23.0778 10.4474 23.257 9.88503 23.4472C9.11648 23.706 8.24657 23.9999 7.25951 23.9999H7.23364Z"
              />
        <path d="M15.8606 0C15.9587 3.19105 13.4294 5.40485 10.903 5.26601C10.4867 2.71944 13.429 0 15.8606 0Z"
              />
    </symbol>

    <!-- Player controls -->
    <symbol xmlns="http://www.w3.org/2000/svg" viewBox="0 0 15 16" id="icon_play">
        <path d="M14.02 7.83109V8.18796C14.019 8.5277 13.84 8.84207 13.5484 9.01641L2.14123 15.6568C1.45298 16.0646 1.09611 16.0646 0.790217 15.8862L0.471581 15.7078C0.187606 15.5382 0.00979338 15.2354 0 14.9048V1.11424C0.00103072 0.774497 0.179979 0.460128 0.471581 0.285787L0.790217 0.107351C1.09611 -0.0710855 1.45298 -0.0710855 2.34516 0.451477L13.5484 7.00263C13.84 7.17697 14.019 7.49134 14.02 7.83109Z"
              fill="#222222"/>
    </symbol>
    <symbol xmlns="http://www.w3.org/2000/svg" viewBox="0 0 16 14" id="icon_volume">
        <path fill-rule="evenodd" clip-rule="evenodd"
              d="M8.7592 0.875V13.125C8.7592 13.6082 8.36703 14 7.88328 14H7.36648C7.13669 13.999 6.91649 13.9079 6.75334 13.7463L3.39857 10.395C2.90624 9.90258 2.23831 9.62561 1.54162 9.625C0.690206 9.625 0 8.93552 0 8.085V5.915C0 5.06448 0.690206 4.375 1.54162 4.375C2.23831 4.37439 2.90624 4.09742 3.39857 3.605L6.75334 0.25375C6.91649 0.0920988 7.13669 0.000966549 7.36648 0H7.88328C8.36703 0 8.7592 0.391751 8.7592 0.875ZM14.0144 2.38876C13.9301 2.30357 13.8185 2.25088 13.6991 2.24001C13.5775 2.23691 13.4601 2.28445 13.375 2.37126L12.7531 2.99251C12.5973 3.16032 12.5973 3.41971 12.7531 3.58751C14.4353 5.55219 14.4353 8.44783 12.7531 10.4125C12.5973 10.5803 12.5973 10.8397 12.7531 11.0075L13.375 11.6288C13.4601 11.7156 13.5775 11.7631 13.6991 11.76C13.8189 11.7507 13.9311 11.6978 14.0144 11.6113C16.3281 8.97153 16.3281 5.0285 14.0144 2.38876ZM10.9052 4.85632C10.9963 4.76768 11.1198 4.72024 11.2468 4.72507C11.3733 4.74 11.4892 4.8026 11.5709 4.90007C12.5052 6.14451 12.5052 7.85562 11.5709 9.10007C11.4908 9.19811 11.3733 9.25835 11.2468 9.26632C11.1209 9.27453 10.9972 9.23017 10.9052 9.14382L10.2833 8.51382C10.134 8.36814 10.1084 8.13744 10.222 7.96257C10.607 7.37854 10.607 6.6216 10.222 6.03757C10.1084 5.8627 10.134 5.632 10.2833 5.48632L10.9052 4.85632Z"
              fill="#222222"/>
    </symbol>
    <symbol xmlns="http://www.w3.org/2000/svg" viewBox="0 0 13 14" id="icon_download">
        <path fill-rule="evenodd" clip-rule="evenodd"
              d="M6.123 10.7071C6.00698 10.7071 5.89614 10.662 5.81675 10.5823L0.750505 5.81411C0.667681 5.73679 0.621094 5.63155 0.621094 5.52175C0.621094 5.41196 0.667681 5.30672 0.750505 5.2294L0.925505 5.0647C1.00782 4.98427 1.12187 4.93955 1.2405 4.94117H3.498V0.411764C3.498 0.184353 3.69388 0 3.9355 0H8.31049C8.55212 0 8.74799 0.184353 8.74799 0.411764V4.94117H11.0055C11.1241 4.93955 11.2382 4.98427 11.3205 5.0647L11.4955 5.2294C11.5783 5.30672 11.6249 5.41196 11.6249 5.52175C11.6249 5.63155 11.5783 5.73679 11.4955 5.81411L6.42924 10.5823C6.34985 10.662 6.23901 10.7071 6.123 10.7071ZM12.25 13.5882V12.7647C12.25 12.5373 12.0541 12.3529 11.8125 12.3529H0.437499C0.195875 12.3529 0 12.5373 0 12.7647V13.5882C0 13.8156 0.195875 14 0.437499 14H11.8125C12.0541 14 12.25 13.8156 12.25 13.5882Z"
              fill="#222222"/>
    </symbol>

    <!--  Listen now -->
    <symbol xmlns="http://www.w3.org/2000/svg" viewBox="0 0 24 24" id="icon_listen-now">
        <g clip-path="url(#clip0_492_48)">
            <path d="M12 0C5.3828 0 0 5.38331 0 12C0 18.6167 5.3828 24 12 24C18.6172 24 24 18.6167 24 12C24 5.38331 18.6172 0 12 0ZM16.7705 12.4204L9.77053 16.9204C9.6885 16.9736 9.59377 17 9.50002 17C9.41798 17 9.33497 16.9795 9.26077 16.939C9.09961 16.8511 9 16.6831 9 16.5V7.5C9 7.31691 9.09961 7.14891 9.26077 7.06102C9.41897 6.97411 9.6172 6.97945 9.77053 7.07958L16.7705 11.5796C16.9131 11.6714 17 11.8301 17 12C17 12.1699 16.9131 12.3286 16.7705 12.4204Z"/>
        </g>
        <defs>
            <clipPath id="clip0_492_48">
                <rect width="24" height="24" fill="transparent"/>
            </clipPath>
        </defs>
    </symbol>

</svg>
